<?xml version="1.0" encoding="utf-8"?>
<!-- Generator: Adobe Illustrator 24.3.0, SVG Export Plug-In . SVG Version: 6.00 Build 0)  -->
<svg version="1.0" id="Calque_1" xmlns="http://www.w3.org/2000/svg" xmlns:xlink="http://www.w3.org/1999/xlink" x="0px" y="0px"
	 viewBox="0 0 427.96 150.63" style="enable-background:new 0 0 427.96 150.63;" xml:space="preserve">
<style type="text/css">
	.st0{fill:#353332;}
	.st1{fill:#FFFFFF;}
</style>
<g>
	<g>
		<g>
			<path class="st0" d="M317.27,23.99l0.15,0.73c0.23,1.06,5.64,25.99,16.64,32.61c10.93,6.57,28.22,6.64,28.4,6.64h0.56l-0.06-0.56
				c-0.08-0.81-2.26-19.78-10.63-27.26c-8.34-7.47-33.26-11.85-34.32-12.04L317.27,23.99z M361.89,62.96
				c-2.97-0.07-17.68-0.7-27.31-6.49c-9.64-5.8-15.05-27.13-16-31.22c4.13,0.77,25.7,5.05,33.08,11.65
				C359,43.46,361.48,59.83,361.89,62.96z"/>
		</g>
		<path class="st0" d="M310.53,112.02c5.3-9.8,12.03-21.27,16.43-25.21c7.42-6.63,30.59-11.68,34.8-12.54
			c-0.64,3.52-3.87,19.88-10.3,28.45c-2.12,2.82-7.3,6.1-13.54,9.31h2.2c5.57-2.99,10.13-6.01,12.15-8.7
			c7.35-9.79,10.48-28.82,10.62-29.63l0.11-0.71l-0.7,0.13c-1.13,0.23-27.66,5.5-36,12.96c-4.61,4.14-11.54,15.99-16.91,25.95
			H310.53z"/>
		<g>
			<path class="st0" d="M371.12,72.73l-0.43,0.06l0,0.44c0.01,0.63,0.22,15.62,8.62,23.11l0,0c8.35,7.45,28.7,9.45,29.56,9.54
				l0.63,0.05l-0.09-0.62c-0.13-0.86-3.24-21.13-14.25-27.74C384.2,70.99,371.25,72.71,371.12,72.73z M408.3,104.81
				c-3.48-0.39-21.01-2.68-28.33-9.21c-7.3-6.52-8.16-19.44-8.26-21.92c2.26-0.23,13.38-0.99,22.93,4.76
				C404.21,84.18,407.69,101.37,408.3,104.81z"/>
		</g>
		<g>
			<path class="st0" d="M423.98,12.98l-0.95,0.28c-1.37,0.43-33.74,10.51-41.11,20.32c-7.34,9.77-11.39,29.35-11.43,29.54
				l-0.16,0.77l0.77-0.18c1.05-0.25,26-6.19,34.32-13.65c8.32-7.45,17.83-34.99,18.24-36.16L423.98,12.98z M371.65,62.54
				c0.82-3.66,4.69-19.84,11.08-28.35c6.52-8.67,34.33-17.94,39.65-19.66c-1.73,4.87-10.3,28.24-17.62,34.8
				C397.39,55.91,375.86,61.5,371.65,62.54z"/>
		</g>
	</g>
	<g>
		<g>
			<defs>
				<path id="SVGID_39_" d="M32.98,63.19h-3.52L23.4,87.95h-0.1l-5.7-24.77h-4.04h-0.44H5.49H5.34V99.6H5.6h7.15v-0.67V71.51h0.11
					l6.5,27.42l0.16,0.67h7.27l0.17-0.67l6.84-27.42h0.1v27.42v0.67h7.42v-0.67v-35.4v-0.35H32.98z M86.11,68.78h3.94
					c5.3,0,5.3,5.9,5.3,12.61c0,9.14-0.91,12.61-5.55,12.61h-3.68V68.78z M89.44,63.19h-5.97H81.8H78.5v35.74v0.67h12.41
					c1.77,0,3.26-0.25,4.55-0.67c8.23-2.69,7.61-12.9,7.61-17.74c0-8.63-1.09-14.54-6-16.88c-1.55-0.73-3.47-1.13-5.85-1.13H89.44z
					 M117.64,63.19h-5.37h-3.11v2.36v33.38v0.67h20.28v-0.67v-4.93h-12.66V83.36h11.3v-5.6h-11.3v-8.98h12.26v-3.23v-2.36H117.64z
					 M141.87,68.78h3.38c2.42,0,3.88,1.31,3.88,4.79c0,2.32-0.86,5.35-3.88,5.35h-3.38V68.78z M144.17,63.19h-6.24h-3.68v2.36v33.38
					v0.67h7.62v-0.67V84.52h1.97c5.85,0,5.45,3.69,5.45,8.03c0,2.14-0.16,4.35,0.55,6.39c0.08,0.23,0.16,0.45,0.26,0.67h7.47
					c-0.07-0.16-0.14-0.4-0.2-0.67c-0.53-2.28-0.65-7.95-0.65-10.02c0-6.55-4.95-6.96-6.61-7.17v-0.1c4.95-0.81,6.77-4.28,6.77-8.93
					c0-2.84-0.72-5.03-1.98-6.62c-1.48-1.9-3.73-2.91-6.55-2.91H144.17z M182.58,63.19v2.93V88.4h-0.1l-9.36-24.35l-0.33-0.87h-0.57
					h-9.33h-0.38v0.35v35.4v0.67h7.12v-0.67V72.98h0.1l9.68,25.96l0.26,0.67h10.04v-0.67V64.18v-1H182.58z M206.6,63.19h-7.62h-2.88
					v35.74v0.67h20.29v-0.67v-4.93h-12.66V83.36h11.3v-5.6h-11.3v-8.98h12.25v-5.6H206.6z M54.88,81.39
					c0-9.33,0.56-13.36,4.85-13.36c4.29,0,4.84,4.03,4.84,13.36c0,9.33-0.56,13.37-4.84,13.37C55.44,94.76,54.88,90.73,54.88,81.39
					 M58.98,62.6c-0.57,0.02-1.12,0.05-1.63,0.11c-0.71,0.08-1.38,0.2-2.01,0.36c-2.01,0.48-3.51,1.35-4.65,2.48
					c-3.5,3.47-3.52,9.55-3.52,15.84c0,7.44,0.03,14.68,5.97,17.54c1.68,0.8,3.82,1.28,6.59,1.28c2.77,0,4.9-0.48,6.59-1.28
					c5.94-2.86,5.97-10.1,5.97-17.54c0-6.29-0.02-12.37-3.52-15.84c-1.58-1.57-3.86-2.6-7.17-2.88c-0.6-0.05-1.21-0.09-1.87-0.09
					C59.47,62.58,59.22,62.59,58.98,62.6 M222.98,66.05c-1.52,1.8-2.1,4.16-2.1,6.76c0,10.84,15.34,11.25,15.34,17.81
					c0,2.47-1.27,4.14-3.84,4.14c-4.19,0-4.34-2.92-4.34-6.41h-7.62c-0.29,4.49,0.54,8.58,4.43,10.58c1.57,0.81,3.64,1.28,6.36,1.28
					c2.56,0,5.35-0.22,7.66-1.28c2.9-1.34,5.05-4.01,5.05-9.27c0-11.45-15.34-10.84-15.34-17.76c0-2.52,1.46-3.88,3.93-3.88
					c3.07,0,3.53,2.77,3.53,5.49h7.42c0.46-6.95-2.57-10.31-8.73-10.85c-0.6-0.05-1.21-0.09-1.86-0.09
					C227.86,62.58,224.77,63.92,222.98,66.05"/>
			</defs>
			<linearGradient id="SVGID_1_" gradientUnits="userSpaceOnUse" x1="5.3368" y1="81.3981" x2="243.9365" y2="81.3981">
				<stop  offset="0" style="stop-color:#E51242"/>
				<stop  offset="1" style="stop-color:#ED6D05"/>
			</linearGradient>
			<use xlink:href="#SVGID_39_"  style="overflow:visible;fill:url(#SVGID_1_);"/>
			<clipPath id="SVGID_2_">
				<use xlink:href="#SVGID_39_"  style="overflow:visible;"/>
			</clipPath>
		</g>
		<polygon class="st0" points="125.26,49.31 136.57,49.31 136.57,43.72 125.26,43.72 125.26,34.73 137.53,34.73 137.53,29.14 
			117.65,29.14 117.65,63.19 129.05,63.19 129.05,65.55 134.25,65.55 134.25,63.19 137.93,63.19 137.93,59.95 125.26,59.95 		"/>
		<g>
			<path class="st0" d="M150.14,37.86c0-2.53,1.46-3.88,3.94-3.88c3.08,0,3.53,2.77,3.53,5.5h7.42c0.51-7.61-3.18-10.95-10.6-10.95
				c-9.29,0-12.01,4.54-12.01,10.25c0,10.84,15.34,11.25,15.34,17.8c0,2.47-1.26,4.14-3.83,4.14c-4.19,0-4.34-2.92-4.34-6.41h-7.62
				c-0.22,3.45,0.22,6.67,2.21,8.88h4.15c2.82,0,5.07,1.01,6.56,2.91c2.79-0.17,5.59-0.79,7.62-2.57v-0.35h0.39
				c1.58-1.57,2.59-3.96,2.59-7.57C165.48,44.17,150.14,44.77,150.14,37.86"/>
			<path class="st0" d="M178.2,37.86c0-2.53,1.46-3.88,3.94-3.88c3.08,0,3.53,2.77,3.53,5.5h7.42c0.5-7.61-3.18-10.95-10.59-10.95
				c-9.29,0-12.01,4.54-12.01,10.25c0,10.84,15.34,11.25,15.34,17.8c0,2.47-1.26,4.14-3.83,4.14c-4.19,0-4.34-2.92-4.34-6.41h-7.62
				c-0.22,3.45,0.22,6.67,2.2,8.88h0.57l0.33,0.87c1.68,1.32,4.14,2.11,7.69,2.11c0.58,0,1.17-0.02,1.76-0.05v-2.93h7.12v1
				c2.27-1.49,3.84-4.08,3.84-8.57C193.53,44.17,178.2,44.77,178.2,37.86"/>
		</g>
		<rect x="198.98" y="29.14" class="st0" width="7.62" height="34.05"/>
		<rect x="5.34" y="29.14" class="st0" width="7.62" height="34.05"/>
		<g>
			<path class="st0" d="M225.21,60.71c-4.28,0-4.84-4.03-4.84-13.37c0-9.33,0.56-13.36,4.84-13.36c4.29,0,4.85,4.03,4.85,13.36
				C230.06,56.68,229.51,60.71,225.21,60.71 M225.21,28.53c-12.56,0-12.56,9.19-12.56,18.82c0,8.93,0,17.63,10.32,18.71
				c1.79-2.13,4.88-3.47,9.91-3.47c0.65,0,1.27,0.04,1.86,0.09c3.03-3.56,3.03-9.4,3.03-15.33
				C237.78,37.71,237.78,28.53,225.21,28.53"/>
		</g>
		<polygon class="st0" points="263.97,54.36 263.87,54.36 254.18,29.14 243.89,29.14 243.89,65.55 251,65.55 251,38.92 251.1,38.92 
			261.04,65.55 271.08,65.55 271.08,29.14 263.97,29.14 		"/>
		<path class="st0" d="M284.75,37.86c0-2.53,1.47-3.88,3.94-3.88c3.08,0,3.53,2.77,3.53,5.5h7.42c0.5-7.61-3.18-10.95-10.6-10.95
			c-9.28,0-12.01,4.54-12.01,10.25c0,10.84,15.34,11.25,15.34,17.8c0,2.47-1.26,4.14-3.83,4.14c-4.19,0-4.34-2.92-4.34-6.41h-7.62
			c-0.41,6.3,1.36,11.86,10.8,11.86c5.8,0,12.71-1.11,12.71-10.54C300.09,44.17,284.75,44.77,284.75,37.86"/>
		<path class="st0" d="M73.45,45.12h-4.24V34.73h3.83c3.43,0,4.24,2.52,4.24,5.5C77.29,42.65,75.72,45.12,73.45,45.12 M75.32,29.14
			H61.59v33.53c3.32,0.28,5.6,1.31,7.17,2.88h0.44V50.72h5.65c8.93,0,10.15-6.55,10.15-10.68C85.01,33.38,82.28,29.14,75.32,29.14"
			/>
		<path class="st0" d="M37.43,53.9h-0.1l-5.7-24.76H19.36v36.42h7.42V37.46h0.1l6.1,25.73h8.33v0.35l6.51-26.07h0.1v28.09h2.76
			c1.14-1.13,2.65-2,4.65-2.48V29.14H43.48L37.43,53.9z"/>
		<path class="st0" d="M100.44,44.87h-3.38V34.73h3.38c2.42,0,3.88,1.32,3.88,4.79C104.33,41.85,103.47,44.87,100.44,44.87
			 M105.29,47.7v-0.1c4.94-0.81,6.76-4.29,6.76-8.92c0-6.21-3.33-9.54-8.52-9.54H89.44v34.05h1.77c2.39,0,4.31,0.39,5.85,1.13V50.48
			h1.97c5.85,0,5.45,3.68,5.45,8.01c0,2.37-0.2,4.84,0.81,7.06h3.89v-2.37h3.1c-0.3-2.68-0.38-6.67-0.38-8.32
			C111.9,48.3,106.95,47.9,105.29,47.7"/>
		<g>
			<defs>
				<path id="SVGID_37_" d="M330.94,74.1c-10.61,5.15-23.03,26.52-23.03,26.52s29.81,2.72,40.23-4.98
					c10.42-7.72,15.44-22.87,15.44-22.87s-7.86-1.37-16.46-1.37C341.33,71.41,335.21,72.03,330.94,74.1"/>
			</defs>
			<linearGradient id="SVGID_3_" gradientUnits="userSpaceOnUse" x1="307.9073" y1="86.2491" x2="363.5788" y2="86.2491">
				<stop  offset="0" style="stop-color:#E51242"/>
				<stop  offset="1" style="stop-color:#ED6D05"/>
			</linearGradient>
			<use xlink:href="#SVGID_37_"  style="overflow:visible;fill:url(#SVGID_3_);"/>
			<clipPath id="SVGID_4_">
				<use xlink:href="#SVGID_37_"  style="overflow:visible;"/>
			</clipPath>
		</g>
		<g>
			<defs>
				<path id="SVGID_36_" d="M376.03,107.99c5.75,9.54,37.88,33.79,37.88,33.79s-3.74-41.81-12.33-51.17
					c-8.59-9.35-29.16-17.88-29.16-17.88S370.29,98.48,376.03,107.99"/>
			</defs>
			<use xlink:href="#SVGID_36_"  style="overflow:visible;fill:#353332;"/>
			<clipPath id="SVGID_5_">
				<use xlink:href="#SVGID_36_"  style="overflow:visible;"/>
			</clipPath>
		</g>
		<g>
			<defs>
				<path id="SVGID_34_" d="M384.67,44.99c-10.42,7.7-12.18,19.49-12.18,19.49s16.87,4.4,27.48-0.76
					c10.62-5.15,18.92-23.04,18.92-23.04s-5.22-0.75-11.85-0.75C399.53,39.94,390.22,40.9,384.67,44.99"/>
			</defs>
			<linearGradient id="SVGID_6_" gradientUnits="userSpaceOnUse" x1="418.8936" y1="53.0855" x2="372.4893" y2="53.0855">
				<stop  offset="0" style="stop-color:#E51242"/>
				<stop  offset="1" style="stop-color:#ED6D05"/>
			</linearGradient>
			<use xlink:href="#SVGID_34_"  style="overflow:visible;fill:url(#SVGID_6_);"/>
			<clipPath id="SVGID_7_">
				<use xlink:href="#SVGID_34_"  style="overflow:visible;"/>
			</clipPath>
		</g>
		<g>
			<defs>
				<path id="SVGID_32_" d="M334.19,45.46c8.59,9.36,28.88,18.59,28.88,18.59s0.87-24.51-4.88-34.02
					c-5.74-9.52-34.14-26.49-34.14-26.49S325.6,36.11,334.19,45.46"/>
			</defs>
			<linearGradient id="SVGID_8_" gradientUnits="userSpaceOnUse" x1="324.0486" y1="33.7972" x2="363.1115" y2="33.7972">
				<stop  offset="0" style="stop-color:#E51242"/>
				<stop  offset="1" style="stop-color:#ED6D05"/>
			</linearGradient>
			<use xlink:href="#SVGID_32_"  style="overflow:visible;fill:url(#SVGID_8_);"/>
			<clipPath id="SVGID_9_">
				<use xlink:href="#SVGID_32_"  style="overflow:visible;"/>
			</clipPath>
		</g>
	</g>
	<g>
		<g>
			<path class="st1" d="M351.54,118.74h-16.9v1.53h7.68v20.28h1.78v-20.28h7.43V118.74z M318.78,132.21c0-1.85,0.47-3.42,1.42-4.7
				s2.26-1.93,3.94-1.93c1.68,0,3,0.64,3.95,1.93s1.44,2.86,1.44,4.7v0.49c0,1.88-0.48,3.46-1.43,4.73s-2.26,1.92-3.93,1.92
				c-1.7,0-3.02-0.64-3.97-1.92s-1.42-2.86-1.42-4.73V132.21z M316.99,132.7c0,2.4,0.65,4.36,1.96,5.88
				c1.31,1.52,3.05,2.28,5.23,2.28c2.16,0,3.89-0.76,5.19-2.28c1.3-1.52,1.96-3.48,1.96-5.88v-0.49c0-2.39-0.65-4.34-1.96-5.87
				c-1.31-1.53-3.05-2.29-5.21-2.29c-2.16,0-3.89,0.76-5.2,2.29c-1.31,1.53-1.96,3.48-1.96,5.87V132.7z M311.15,118.74h-1.8v21.81
				h1.8V118.74z M293.62,118.74h-0.81v25.86h0.81V118.74z M277.6,117.18h-1.78v23.37h1.78V117.18z M259.67,138.44
				c-0.6-0.56-0.91-1.3-0.91-2.22c0-0.98,0.47-1.81,1.42-2.51c0.95-0.69,2.15-1.04,3.61-1.04h4v3.1c-0.36,1.03-1.04,1.87-2.05,2.53
				c-1.01,0.65-2.2,0.98-3.58,0.98C261.11,139.27,260.28,138.99,259.67,138.44 M270,140.55c-0.15-0.53-0.26-1.06-0.32-1.6
				c-0.07-0.54-0.1-1.09-0.1-1.66v-7.97c0-1.7-0.54-3-1.62-3.91c-1.08-0.91-2.51-1.36-4.29-1.36s-3.22,0.46-4.32,1.38
				c-1.1,0.92-1.62,1.99-1.56,3.21l0.03,0.09h1.66c0-0.91,0.38-1.66,1.13-2.26c0.75-0.6,1.74-0.9,2.97-0.9
				c1.34,0,2.37,0.33,3.11,0.99c0.73,0.66,1.1,1.57,1.1,2.73v2.01h-3.98c-2.03,0-3.68,0.45-4.95,1.35c-1.27,0.9-1.9,2.07-1.9,3.52
				s0.44,2.59,1.31,3.44c0.87,0.84,2.1,1.27,3.69,1.27c1.31,0,2.47-0.29,3.47-0.86c1.01-0.58,1.79-1.3,2.35-2.18
				c0,0.43,0.03,0.85,0.08,1.26c0.06,0.41,0.14,0.9,0.25,1.47H270z M247.76,120.19v4.15h-2.8v1.47h2.8v10.56
				c0,1.56,0.32,2.7,0.95,3.41c0.63,0.72,1.52,1.08,2.66,1.08c0.35,0,0.7-0.04,1.05-0.11c0.36-0.07,0.65-0.17,0.89-0.29l-0.27-1.33
				c-0.28,0.06-0.52,0.1-0.73,0.13c-0.21,0.02-0.42,0.04-0.64,0.04c-0.64,0-1.15-0.22-1.54-0.67c-0.38-0.44-0.58-1.19-0.58-2.25
				v-10.56h3.57v-1.47h-3.57v-4.15H247.76z M240.59,117.18h-1.78v2.52h1.78V117.18z M240.59,124.34h-1.78v16.21h1.78V124.34z
				 M221.43,132.58c0-2.06,0.4-3.73,1.2-5.03c0.8-1.3,1.99-1.95,3.57-1.95c1.18,0,2.14,0.29,2.9,0.86c0.75,0.58,1.33,1.32,1.74,2.23
				v7.73c-0.43,0.9-1.03,1.61-1.81,2.12c-0.77,0.51-1.73,0.77-2.87,0.77c-1.58,0-2.76-0.58-3.55-1.74
				c-0.79-1.16-1.18-2.72-1.18-4.67V132.58z M219.63,132.89c0,2.42,0.55,4.35,1.64,5.8c1.09,1.45,2.61,2.17,4.54,2.17
				c1.11,0,2.08-0.22,2.93-0.65c0.84-0.44,1.54-1.06,2.09-1.87v2.29c0,1.6-0.4,2.8-1.18,3.62c-0.79,0.82-1.98,1.23-3.58,1.23
				c-0.84,0-1.63-0.08-2.36-0.25c-0.73-0.16-1.43-0.41-2.07-0.73l-0.34,1.51c0.66,0.33,1.43,0.59,2.31,0.78
				c0.89,0.19,1.71,0.29,2.49,0.29c2.09,0,3.7-0.56,4.84-1.68c1.14-1.12,1.71-2.71,1.71-4.78v-16.3h-1.45l-0.26,2.55
				c-0.55-0.91-1.25-1.61-2.1-2.1c-0.85-0.49-1.85-0.74-3-0.74c-1.96,0-3.48,0.78-4.58,2.33c-1.1,1.55-1.64,3.62-1.64,6.21V132.89z
				 M214.09,117.18h-1.78v2.52h1.78V117.18z M214.09,124.34h-1.78v16.21h1.78V124.34z M197.28,120.27c2.15,0,3.92,0.75,5.33,2.26
				s2.1,3.4,2.1,5.68v2.85c0,2.31-0.7,4.21-2.1,5.72c-1.4,1.51-3.18,2.26-5.33,2.26h-4.85v-18.77H197.28z M197.28,140.55
				c2.67,0,4.87-0.89,6.61-2.66c1.74-1.77,2.61-4.05,2.61-6.84v-2.8c0-2.78-0.87-5.07-2.61-6.84c-1.74-1.78-3.95-2.67-6.61-2.67
				h-6.65v21.81H197.28z M175.37,118.74h-0.81v25.86h0.81V118.74z M155.42,120.19v4.15h-2.8v1.47h2.8v10.56
				c0,1.56,0.32,2.7,0.95,3.41c0.63,0.72,1.52,1.08,2.66,1.08c0.35,0,0.7-0.04,1.06-0.11c0.35-0.07,0.65-0.17,0.89-0.29l-0.27-1.33
				c-0.28,0.06-0.52,0.1-0.73,0.13c-0.21,0.02-0.42,0.04-0.64,0.04c-0.64,0-1.15-0.22-1.53-0.67c-0.39-0.44-0.58-1.19-0.58-2.25
				v-10.56h3.57v-1.47h-3.57v-4.15H155.42z M136.13,124.34v16.21h1.8v-11.47c0.35-1.06,0.92-1.9,1.7-2.53
				c0.78-0.63,1.81-0.94,3.09-0.94c1.28,0,2.26,0.38,2.96,1.15c0.69,0.77,1.04,2.08,1.04,3.94v9.86h1.8v-9.87
				c0-2.28-0.46-3.95-1.38-5.03c-0.92-1.07-2.26-1.61-4.01-1.61c-1.21,0-2.25,0.27-3.13,0.81c-0.88,0.55-1.58,1.31-2.11,2.3
				l-0.16-2.82H136.13z M129.95,117.18h-1.78v2.52h1.78V117.18z M129.95,124.34h-1.78v16.21h1.78V124.34z M123.87,124.2
				c-0.13-0.04-0.29-0.08-0.49-0.11c-0.2-0.04-0.41-0.05-0.63-0.05c-1.09,0-2.03,0.28-2.82,0.84c-0.79,0.56-1.42,1.34-1.89,2.34
				v-0.18l-0.22-2.7h-1.57v16.21h1.8v-11.19c0.31-1.11,0.83-1.98,1.55-2.61c0.72-0.63,1.65-0.95,2.78-0.95l1.28,0.09L123.87,124.2z
				 M98.31,120.27h5.72c1.8,0,3.15,0.46,4.05,1.38c0.9,0.93,1.35,2.08,1.35,3.48c0,1.39-0.45,2.54-1.35,3.45
				c-0.9,0.91-2.25,1.37-4.05,1.37h-5.72V120.27z M104.03,131.49c2.29,0,4.06-0.58,5.31-1.74c1.25-1.16,1.88-2.71,1.88-4.64
				c0-1.91-0.63-3.45-1.88-4.61c-1.25-1.17-3.02-1.75-5.31-1.75h-7.52v21.81h1.8v-9.06H104.03z M81.26,118.74h-0.81v25.86h0.81
				V118.74z M55.5,138.44c-0.6-0.56-0.91-1.3-0.91-2.22c0-0.98,0.47-1.81,1.42-2.51c0.95-0.69,2.15-1.04,3.61-1.04h4v3.1
				c-0.36,1.03-1.04,1.87-2.05,2.53c-1.01,0.65-2.2,0.98-3.58,0.98C56.93,139.27,56.11,138.99,55.5,138.44 M65.83,140.55
				c-0.15-0.53-0.26-1.06-0.32-1.6c-0.07-0.54-0.1-1.09-0.1-1.66v-7.97c0-1.7-0.54-3-1.62-3.91c-1.08-0.91-2.51-1.36-4.29-1.36
				c-1.78,0-3.22,0.46-4.32,1.38c-1.1,0.92-1.63,1.99-1.56,3.21l0.03,0.09h1.66c0-0.91,0.38-1.66,1.13-2.26
				c0.76-0.6,1.75-0.9,2.97-0.9c1.34,0,2.37,0.33,3.11,0.99c0.74,0.66,1.1,1.57,1.1,2.73v2.01h-3.99c-2.03,0-3.67,0.45-4.94,1.35
				c-1.27,0.9-1.9,2.07-1.9,3.52s0.44,2.59,1.31,3.44c0.87,0.84,2.1,1.27,3.69,1.27c1.31,0,2.47-0.29,3.47-0.86
				c1.01-0.58,1.79-1.3,2.35-2.18c0,0.43,0.03,0.85,0.08,1.26c0.06,0.41,0.14,0.9,0.25,1.47H65.83z M41.49,121.44h1.6l3.73-3.9
				l-0.05-0.09h-2.2L41.49,121.44z M45.92,126.97c0.75,0.93,1.13,2.12,1.13,3.56v0.38h-9.29l-0.05-0.09
				c0.15-1.52,0.67-2.77,1.56-3.76c0.89-0.99,2.02-1.48,3.4-1.48C44.08,125.57,45.16,126.04,45.92,126.97 M46.15,140.27
				c0.92-0.39,1.67-0.89,2.24-1.49l-0.76-1.23c-0.55,0.55-1.24,0.99-2.07,1.31s-1.74,0.49-2.73,0.49c-1.65,0-2.94-0.61-3.87-1.83
				c-0.93-1.22-1.4-2.75-1.4-4.6v-0.49h11.28v-1.39c0-2.14-0.54-3.84-1.61-5.1c-1.07-1.26-2.59-1.89-4.56-1.89
				c-1.96,0-3.6,0.76-4.92,2.27c-1.32,1.52-1.99,3.45-1.99,5.78v0.82c0,2.33,0.65,4.23,1.96,5.71c1.31,1.48,3.01,2.22,5.11,2.22
				C44.12,140.86,45.23,140.67,46.15,140.27 M32.89,124.2c-0.13-0.04-0.29-0.08-0.49-0.11c-0.2-0.04-0.41-0.05-0.63-0.05
				c-1.09,0-2.03,0.28-2.82,0.84c-0.79,0.56-1.42,1.34-1.89,2.34v-0.18l-0.23-2.7h-1.57v16.21h1.8v-11.19
				c0.31-1.11,0.83-1.98,1.55-2.61c0.73-0.63,1.65-0.95,2.78-0.95l1.27,0.09L32.89,124.2z M18.14,133.73c0,1.83-0.54,3.22-1.61,4.18
				s-2.55,1.44-4.44,1.44c-1.91,0-3.44-0.74-4.59-2.21c-1.15-1.47-1.73-3.38-1.73-5.72v-3.58c0-2.31,0.58-4.2,1.73-5.68
				c1.15-1.48,2.69-2.22,4.59-2.22c1.89,0,3.37,0.49,4.44,1.48s1.61,2.35,1.61,4.11h1.68l0.03-0.09c0.04-2.19-0.65-3.91-2.07-5.15
				c-1.42-1.25-3.32-1.87-5.68-1.87c-2.43,0-4.38,0.88-5.87,2.64c-1.49,1.76-2.23,4.03-2.23,6.81v3.55c0,2.79,0.75,5.06,2.23,6.81
				c1.49,1.75,3.45,2.63,5.87,2.63c2.34,0,4.22-0.64,5.66-1.92c1.44-1.28,2.14-2.98,2.1-5.12l-0.03-0.09H18.14z"/>
		</g>
	</g>
</g>
<g>
</g>
<g>
</g>
<g>
</g>
<g>
</g>
<g>
</g>
<g>
</g>
</svg>
